<svg width="30" height="30" fill="none" xmlns="http://www.w3.org/2000/svg">
    <g fill="#A6A39CFF">
        <path d="m1.988 27.159.853.853.059.058a.5.5 0 0 0 .706 0l5.427-5.426a.446.446 0 0 0 0-.631l-.096-.099 7.273-7.27a.322.322 0 0 0 .007-.45 9.981 9.981 0 0 0-.412-.411.322.322 0 0 0-.448.007l-7.271 7.273-.096-.095a.444.444 0 0 0-.63 0l-5.426 5.426a.5.5 0 0 0 0 .707l.054.058ZM21.836 7.959l-1.518.551a.34.34 0 0 0-.136.547c.117.132.24.262.37.39.131.129.26.252.39.371a.34.34 0 0 0 .548-.136l.551-1.518a.16.16 0 0 0-.116-.211.16.16 0 0 0-.089.006ZM12.91 5.86c2.305-2.014 4.66-2.117 5.87-1.996a.351.351 0 0 0 .388-.329l.078-1.334a.351.351 0 0 0-.314-.37c-1.11-.117-4.78-.226-7.772 2.766-2.991 2.991-2.88 6.658-2.765 7.766a.352.352 0 0 0 .37.315l1.334-.078a.35.35 0 0 0 .328-.388c-.12-1.211-.017-3.565 1.997-5.87.15-.172.313-.333.486-.483ZM28.172 11.068a.352.352 0 0 0-.37-.314l-1.334.078a.352.352 0 0 0-.329.387c.122 1.212.018 3.566-1.995 5.871a5.126 5.126 0 0 1-.487.486c-2.305 2.014-4.66 2.117-5.87 1.994a.351.351 0 0 0-.389.329l-.078 1.334a.352.352 0 0 0 .315.37c1.11.114 4.78.226 7.771-2.766 2.992-2.992 2.88-6.659 2.766-7.77Z"/>
        <path d="M11.798 10.801c2.944-.313 7.714 4.457 7.4 7.401a.257.257 0 0 0 .177.273.256.256 0 0 0 .117.009c1.009-.165 2.247-.615 3.48-1.692.137-.12.267-.25.387-.388 1.076-1.23 1.527-2.47 1.692-3.479a.255.255 0 0 0-.282-.293c-2.943.311-7.712-4.457-7.4-7.4a.256.256 0 0 0-.177-.273.255.255 0 0 0-.117-.009c-1.009.164-2.247.616-3.481 1.691-.138.12-.268.25-.388.387-1.076 1.23-1.524 2.471-1.692 3.48a.254.254 0 0 0 .284.293Z"/>
    </g>
</svg>
