<svg width="30" height="30" fill="none" xmlns="http://www.w3.org/2000/svg">
    <g fill="#A6A39CFF">
        <path d="M2.46 28.215a14.73 14.73 0 0 1 3.265-1.514 9.984 9.984 0 0 1 3.296-.428c1.948.062 8.307-.106 12.728-4.527 4.42-4.421 4.589-10.781 4.527-12.728a9.984 9.984 0 0 1 .428-3.296 14.73 14.73 0 0 1 1.511-3.261.489.489 0 0 0-.45-.747c-.676.051-1.03.45-1.03.45l-.565.565a.035.035 0 0 0-.007.006L13.155 15.743a.623.623 0 0 0-.03.86.607.607 0 0 0 .869.014l9.43-9.434a.23.23 0 0 1 .39.195v.007a38.36 38.36 0 0 1-1.139 5.684 13.985 13.985 0 0 1-9.604 9.607 38.36 38.36 0 0 1-5.683 1.139H7.38a.23.23 0 0 1-.195-.39l2.659-2.664a.622.622 0 0 0 .03-.86.605.605 0 0 0-.868-.014L2.71 26.185l-.006.007-.543.543s-.399.352-.45 1.03a.49.49 0 0 0 .75.45Z"/>
        <path d="M12.151 17.768a.622.622 0 0 0-.167-.168.573.573 0 0 0-.335-.102.576.576 0 0 0-.23.047.623.623 0 0 0-.273.223.6.6 0 0 0 0 .67.63.63 0 0 0 .168.168.633.633 0 0 0 .217.09.55.55 0 0 0 .234 0 .574.574 0 0 0 .218-.09.6.6 0 0 0 .168-.168.62.62 0 0 0 .093-.218.623.623 0 0 0 0-.234.566.566 0 0 0-.093-.218Z"/>
    </g>
</svg>
