<svg width="30" height="30" fill="none" xmlns="http://www.w3.org/2000/svg">
    <g fill="#A6A39CFF">
        <path d="M27.966 7.043c-1.682-1.414-4.213-3.97-5.279-5.06a.767.767 0 0 0-1.039-.055c-2.265 1.875-5.28 3.691-6.348 4.318a.765.765 0 0 0-.377.68c.085 3.43-.992 7.085-1.447 8.467a1.284 1.284 0 0 1-.743.79l-3.55 1.422a2.145 2.145 0 0 0-1.261 1.39l-.9 3.089a1.5 1.5 0 0 1-.46.714c-.749.649-3.017 3.399-4.683 4.84-.312.27.025.762.39.567C4.323 27.113 7.002 24.9 8.1 24.387a1.48 1.48 0 0 0 .808-.96c.273-1.035.692-2.015.986-2.637a2.131 2.131 0 0 1 1.044-1.032c1.126-.515 2.709-1.055 3.642-1.364a1.28 1.28 0 0 0 .872-1.046 37.493 37.493 0 0 1 2.23-8.603 5.958 5.958 0 0 1 1.477-2.183c1.33-1.23 2.632-1.27 3.51-1.076a2.981 2.981 0 0 1 1.889 1.318c1.11 1.776-.722 3.259-.722 3.259-.932.732-2.372.493-3.027.33a.288.288 0 0 0-.328.147.29.29 0 0 0-.033.124l-.03.803a.288.288 0 0 0 .111.24l1.924 1.495a.87.87 0 0 0 1.183-.108l4.41-4.95a.771.771 0 0 0-.08-1.101Z"/>
        <path d="M21.885 9.401a1.353 1.353 0 1 0 .104-2.703 1.353 1.353 0 0 0-.104 2.703Z"/>
    </g>
</svg>