<svg width="30" height="30" fill="none" xmlns="http://www.w3.org/2000/svg">
    <g fill="#A6A39CFF">
        <path d="M12.788 21.377a.96.96 0 0 0 1.068-.195l13.938-13.94a.787.787 0 0 0 .223-.433c.242-1.555.156-3.773.112-4.595a.363.363 0 0 0-.343-.343c-.82-.044-3.04-.13-4.595.112a.787.787 0 0 0-.434.222L8.825 16.14a.947.947 0 0 0-.2 1.054c.809 1.8 2.267 3.348 4.163 4.184Z"/>
        <path d="m3.102 26.898 1.162 1.162a.41.41 0 0 0 .581 0l.168-.17a.74.74 0 0 0 0-1.047.644.644 0 0 1-.018-.89c.948-1.03 2.425-2.09 3.345-2.707a1.41 1.41 0 0 1 1.55-.01c1.366.88 2.813 1.231 3.441 1.348a.41.41 0 0 0 .45-.234l.399-.885a.411.411 0 0 0-.324-.575c-2.46-.293-4.346-2.402-4.346-2.402s-2.106-1.884-2.403-4.347a.41.41 0 0 0-.574-.323l-.883.4a.41.41 0 0 0-.235.45c.117.628.469 2.076 1.348 3.441a1.41 1.41 0 0 1-.01 1.551c-.616.92-1.676 2.397-2.706 3.345a.644.644 0 0 1-.89-.018.74.74 0 0 0-1.048 0l-.168.168a.41.41 0 0 0 0 .581l1.161 1.162Z"/>
    </g>
</svg>